<svg width="40" height="40" viewBox="0 0 40 40" fill="none" xmlns="http://www.w3.org/2000/svg">
<circle cx="20" cy="20" r="19" fill="#FAC697" stroke="#D46C28" stroke-width="2"/>
<path d="M20 9C16.7435 9 16.334 9.015 15.0545 9.072C13.775 9.132 12.9035 9.333 12.14 9.63C11.3391 9.93123 10.6137 10.4037 10.0145 11.0145C9.40411 11.614 8.93166 12.3394 8.63 13.14C8.333 13.902 8.1305 14.775 8.072 16.05C8.015 17.3325 8 17.7405 8 21.0015C8 24.2595 8.015 24.6675 8.072 25.947C8.132 27.225 8.333 28.0965 8.63 28.86C8.9375 29.649 9.347 30.318 10.0145 30.9855C10.6805 31.653 11.3495 32.064 12.1385 32.37C12.9035 32.667 13.7735 32.8695 15.0515 32.928C16.3325 32.985 16.7405 33 20 33C23.2595 33 23.666 32.985 24.947 32.928C26.2235 32.868 27.098 32.667 27.8615 32.37C28.6618 32.0686 29.3867 31.5961 29.9855 30.9855C30.653 30.318 31.0625 29.649 31.37 28.86C31.6655 28.0965 31.868 27.225 31.928 25.947C31.985 24.6675 32 24.2595 32 21C32 17.7405 31.985 17.3325 31.928 16.0515C31.868 14.775 31.6655 13.902 31.37 13.14C31.0684 12.3393 30.5959 11.614 29.9855 11.0145C29.3864 10.4035 28.661 9.93097 27.86 9.63C27.095 9.333 26.222 9.1305 24.9455 9.072C23.6645 9.015 23.258 9 19.997 9H20.0015H20ZM18.9245 11.163H20.0015C23.2055 11.163 23.585 11.1735 24.8495 11.232C26.0195 11.2845 26.6555 11.481 27.0785 11.6445C27.638 11.862 28.0385 12.123 28.4585 12.543C28.8785 12.963 29.138 13.362 29.3555 13.923C29.5205 14.3445 29.7155 14.9805 29.768 16.1505C29.8265 17.415 29.8385 17.7945 29.8385 20.997C29.8385 24.1995 29.8265 24.5805 29.768 25.845C29.7155 27.015 29.519 27.6495 29.3555 28.0725C29.1631 28.5935 28.856 29.0647 28.457 29.451C28.037 29.871 27.638 30.1305 27.077 30.348C26.657 30.513 26.021 30.708 24.8495 30.762C23.585 30.819 23.2055 30.8325 20.0015 30.8325C16.7975 30.8325 16.4165 30.819 15.152 30.762C13.982 30.708 13.3475 30.513 12.9245 30.348C12.4032 30.1559 11.9317 29.8494 11.5445 29.451C11.1451 29.064 10.8376 28.5925 10.6445 28.071C10.481 27.6495 10.2845 27.0135 10.232 25.8435C10.175 24.579 10.163 24.1995 10.163 20.994C10.163 17.79 10.175 17.412 10.232 16.1475C10.286 14.9775 10.481 14.3415 10.646 13.9185C10.8635 13.359 11.1245 12.9585 11.5445 12.5385C11.9645 12.1185 12.3635 11.859 12.9245 11.6415C13.3475 11.4765 13.982 11.2815 15.152 11.2275C16.259 11.1765 16.688 11.1615 18.9245 11.16V11.163V11.163ZM26.4065 13.155C26.2174 13.155 26.0301 13.1922 25.8554 13.2646C25.6807 13.337 25.522 13.443 25.3883 13.5768C25.2545 13.7105 25.1485 13.8692 25.0761 14.0439C25.0037 14.2186 24.9665 14.4059 24.9665 14.595C24.9665 14.7841 25.0037 14.9714 25.0761 15.1461C25.1485 15.3208 25.2545 15.4795 25.3883 15.6132C25.522 15.747 25.6807 15.853 25.8554 15.9254C26.0301 15.9978 26.2174 16.035 26.4065 16.035C26.7884 16.035 27.1547 15.8833 27.4247 15.6132C27.6948 15.3432 27.8465 14.9769 27.8465 14.595C27.8465 14.2131 27.6948 13.8468 27.4247 13.5768C27.1547 13.3067 26.7884 13.155 26.4065 13.155V13.155ZM20.0015 14.838C19.1841 14.8252 18.3723 14.9752 17.6135 15.2792C16.8546 15.5832 16.1638 16.0351 15.5812 16.6086C14.9987 17.1822 14.536 17.8659 14.2203 18.6199C13.9045 19.3739 13.7419 20.1833 13.7419 21.0007C13.7419 21.8182 13.9045 22.6276 14.2203 23.3816C14.536 24.1356 14.9987 24.8193 15.5812 25.3929C16.1638 25.9664 16.8546 26.4183 17.6135 26.7223C18.3723 27.0263 19.1841 27.1763 20.0015 27.1635C21.6193 27.1383 23.1623 26.4779 24.2975 25.3249C25.4326 24.1719 26.0689 22.6188 26.0689 21.0007C26.0689 19.3827 25.4326 17.8296 24.2975 16.6766C23.1623 15.5236 21.6193 14.8632 20.0015 14.838V14.838ZM20.0015 16.9995C21.0625 16.9995 22.08 17.421 22.8303 18.1712C23.5805 18.9215 24.002 19.939 24.002 21C24.002 22.061 23.5805 23.0785 22.8303 23.8288C22.08 24.579 21.0625 25.0005 20.0015 25.0005C18.9405 25.0005 17.923 24.579 17.1727 23.8288C16.4225 23.0785 16.001 22.061 16.001 21C16.001 19.939 16.4225 18.9215 17.1727 18.1712C17.923 17.421 18.9405 16.9995 20.0015 16.9995V16.9995Z" fill="#D46C28"/>
</svg>
