<svg width="57" height="57" viewBox="0 0 57 57" fill="none" xmlns="http://www.w3.org/2000/svg">
<circle cx="28.5" cy="28.5" r="28.5" fill="#D46C28"/>
<path d="M40.2071 17.65C37.2143 14.65 33.2286 13 28.9929 13C20.25 13 13.1357 20.1143 13.1357 28.8571C13.1357 31.65 13.8643 34.3786 15.25 36.7857L13 45L21.4071 42.7929C23.7214 44.0571 26.3286 44.7214 28.9857 44.7214H28.9929C37.7286 44.7214 45 37.6071 45 28.8643C45 24.6286 43.2 20.65 40.2071 17.65ZM28.9929 42.05C26.6214 42.05 24.3 41.4143 22.2786 40.2143L21.8 39.9286L16.8143 41.2357L18.1429 36.3714L17.8286 35.8714C16.5071 33.7714 15.8143 31.35 15.8143 28.8571C15.8143 21.5929 21.7286 15.6786 29 15.6786C32.5214 15.6786 35.8286 17.05 38.3143 19.5429C40.8 22.0357 42.3286 25.3429 42.3214 28.8643C42.3214 36.1357 36.2571 42.05 28.9929 42.05ZM36.2214 32.1786C35.8286 31.9786 33.8786 31.0214 33.5143 30.8929C33.15 30.7571 32.8857 30.6929 32.6214 31.0929C32.3571 31.4929 31.6 32.3786 31.3643 32.65C31.1357 32.9143 30.9 32.95 30.5071 32.75C28.1786 31.5857 26.65 30.6714 25.1143 28.0357C24.7071 27.3357 25.5214 27.3857 26.2786 25.8714C26.4071 25.6071 26.3429 25.3786 26.2429 25.1786C26.1429 24.9786 25.35 23.0286 25.0214 22.2357C24.7 21.4643 24.3714 21.5714 24.1286 21.5571C23.9 21.5429 23.6357 21.5429 23.3714 21.5429C23.1071 21.5429 22.6786 21.6429 22.3143 22.0357C21.95 22.4357 20.9286 23.3929 20.9286 25.3429C20.9286 27.2929 22.35 29.1786 22.5429 29.4429C22.7429 29.7071 25.3357 33.7071 29.3143 35.4286C31.8286 36.5143 32.8143 36.6071 34.0714 36.4214C34.8357 36.3071 36.4143 35.4643 36.7429 34.5357C37.0714 33.6071 37.0714 32.8143 36.9714 32.65C36.8786 32.4714 36.6143 32.3714 36.2214 32.1786Z" fill="white"/>
</svg>
